<?xml version="1.0" encoding="utf-8"?>
<!-- Generator: Adobe Illustrator 23.0.2, SVG Export Plug-In . SVG Version: 6.00 Build 0)  -->
<svg version="1.1" id="Layer_1" xmlns="http://www.w3.org/2000/svg" x="0px" y="0px"
     viewBox="0 0 177 263" style="enable-background:new 0 0 177 263;" xml:space="preserve">
<style type="text/css">
	.st0{fill:#0D2A52;fill-opacity:0;}
	.st1{fill-rule:evenodd;clip-rule:evenodd;fill:#F9A01B;}
	.st2{fill:#35469B;}
</style>
<desc>Created with Fabric.js 2.3.3</desc>
<rect id="background-logo" y="0" class="st0" width="176.7" height="262.9"/>
<g id="logo-logo" transform="translate(325 214.118)">
	<path class="st1" d="M-270-134.3c-5.5-8-7.8-17.5-6.9-26.7c0.8-9.1,4.7-18,11.7-25l0,0c7.9-7.9,18.3-11.9,28.7-11.9
		c10.4,0,20.8,4,28.7,11.9c6.5,6.5,10.3,14.6,11.5,23.1c1.1,8.1-0.2,16.5-4,24l11.3,11.3c6.7-10.6,9.6-23,8.5-35.2
		c-1.1-12.6-6.5-25.1-16.2-34.8c-11-11-25.4-16.5-39.8-16.5c-14.4,0-28.8,5.5-39.8,16.5l0,0c-10.3,10.2-15.7,23.3-16.5,36.6
		c-0.8,13.4,3.3,27.1,12.1,38.3c0.4,0.5,0.7,0.9,1,1.3l1,1.2l0,0l4.6,4.6l7.9,7.9l0,0l17.8,17.8l0.1,0.1c2.8,3.3,6,6.6,9.2,9.9
		c6.4,6.8,12.9,13.5,16.9,20.2c3.4,4.8,5,11,5,17.1c-0.1,6.1-1.9,12.2-5.5,16.9c-1.2,1.6-2.5,2.9-3.9,4c-3.1,2.3-6.5,3.5-10,3.5
		s-6.9-1.2-10-3.5c-1.4-1.1-2.7-2.4-3.9-4c-3.5-4.6-5.4-10.6-5.5-16.7c-0.1-6.1,1.5-12.2,4.8-17l0.1-0.1l1.4-1.8l8.1-10.6
		l-10.5-10.9l-8.6,9.4l-3,3.3l0,0l0,0l0,0l0,0c-6.5,7.9-9.6,17.9-9.3,27.8c0.3,9.9,3.8,19.7,10.7,27.2c0.8,0.8,1.5,1.6,2.3,2.3
		c6.7,6.2,15.1,9.2,23.4,9.2s16.6-3.1,23.3-9.2l0,0c0.8-0.8,1.6-1.5,2.3-2.3c6.9-7.5,10.2-16.9,10.4-26.5
		c0.2-10.2-3.1-20.5-9.5-29.1c-6.5-9.1-12.6-15.1-18.7-21.2c-3-3-6-6-9.3-9.5l0,0l-17.1-17.2l0,0l-14.6-15.4L-270-134.3L-270-134.3z
		 M-185.4-88.9c12.7,13.7,18.9,31.3,18.6,48.7s-7.2,34.7-20.4,48c-13.7,13.6-31.5,20.4-49.4,20.4l0,0c-17.9,0-35.7-6.8-49.4-20.4
		c-13.1-13.1-19.9-30.2-20.4-47.4c-0.5-17.3,5.5-34.7,17.8-48.5l0.1-0.1l5.4-5.4l0,0l10.2-10.2l-12.1-12.1l-10.3,10.4l0,0l-7.2,7.2
		l0,0c-15.5,17.4-23,39.4-22.3,61.3c0.6,21.8,9.2,43.4,25.9,60c17.3,17.3,39.9,25.9,62.5,25.9l0,0c22.6,0,45.2-8.6,62.5-25.9
		c16.8-16.8,25.4-38.7,25.9-60.7c0.2-22.1-7.6-44.4-23.7-61.7l0,0l-5-5l-15.5-15.6l-14-14l-30.4-30.3l-12.2,12.2l12.2,12v-0.1
		l1.5,1.5l6.2,6.2l0,0l0,0l0,0l0,0l0.1,0.1l0.5,0.5l0,0l10.3,10.3l13.8,13.8l14.9,14.9L-185.4-88.9L-185.4-88.9L-185.4-88.9"/>
	<path class="st2" d="M-202.9-79.3l-34.1-34.5l-2.8-8.4l2.8-2.9l2.8,2.9l37,37.4l3,3.1l0.1,0.1c10.6,11.6,15.8,26.5,15.5,41.2
		c-0.3,14.8-6,29.4-17.1,40.7l0,0l-0.5,0.5l0,0c-11.4,11.2-26.1,16.8-40.9,16.8s-29.5-5.6-40.8-16.8l0,0l-0.5-0.5l0,0
		c-11-11.1-16.7-25.6-17.1-40.1c-0.4-14.6,4.5-29.4,14.8-41.1l0.1-0.2l4.3-4.4l12.2-12.3l5.6,5.6l-12.1,12.3l-4.3,4.4
		c-8.8,10-13,22.8-12.7,35.4s5.3,25.1,14.8,34.8l0,0l0.5,0.5l0,0c9.8,9.7,22.5,14.5,35.3,14.5c12.7,0,25.4-4.8,35.3-14.5l0,0
		l0.5-0.5l0,0c9.6-9.7,14.5-22.4,14.8-35.2c0.2-12.8-4.2-25.7-13.3-35.7l0,0L-202.9-79.3L-202.9-79.3"/>
	<path class="st2" d="M-239.9-116.7l-16.3-16.5l-1.9-2l-0.1-0.2c-5-5.6-7.4-12.8-7.2-19.9c0.2-7.1,3-14.1,8.3-19.5l0,0l0.2-0.2l0,0
		c5.5-5.5,12.7-8.2,19.8-8.2l0,0c7.2,0,14.3,2.7,19.8,8.2l0,0l0.2,0.2l0,0c5.4,5.5,8.1,12.6,8.3,19.7c0.1,3.1-0.4,6.2-1.3,9.3
		l-6.7-6.7c0.1-0.8,0.1-1.6,0.1-2.4c-0.1-5.2-2.1-10.3-6-14.3l0,0l-0.2-0.2l0,0c-4-3.9-9.1-5.9-14.3-5.9l0,0c-5.2,0-10.3,2-14.3,5.9
		l0,0l-0.2,0.2l0,0c-3.9,3.9-5.9,9-6,14.1c-0.1,5.1,1.6,10.3,5.1,14.3l1.9,1.9c4.7,4.7,10.1,9.9,13.5,13.6
		C-216.2-101.7-221.8-98.4-239.9-116.7L-239.9-116.7"/>
</g>
</svg>
