<?xml version="1.0" encoding="utf-8"?>
<!-- Generator: Adobe Illustrator 23.0.2, SVG Export Plug-In . SVG Version: 6.00 Build 0)  -->
<svg version="1.1" id="Layer_1" xmlns="http://www.w3.org/2000/svg" x="0px" y="0px"
     viewBox="0 0 245.6 51.5" style="enable-background:new 0 0 245.6 51.5;" xml:space="preserve">
<style type="text/css">
	.st0{fill:none;}
	.st1{enable-background:new    ;}
	.st2{fill:#FFFFFF;}
</style>
<rect x="4.1" y="8.9" class="st0" width="34.9" height="0.4"/>
<g class="st1">
	<path class="st2" d="M4.4,28.7v-5.9c1.4,1.3,3.2,2.1,5,2.1c2.2,0,4-1.7,4-4c0-4.7-6.4-7.4-6.4-13.2c0-3.9,2-6.8,5.4-8.5l3.2,4.4
		C14,4.5,13,5.9,13,7.8c0,4.2,6.4,7.1,6.4,13.7c0,4.9-3.5,8.8-8.4,8.8C8.7,30.3,6.3,30,4.4,28.7z"/>
	<path class="st2" d="M54.6,0.4v35.1c0,5.9-4.2,12.5-10.4,13.2l-2-5.1c3.7-0.5,6.6-4.4,6.6-8.1V25.4c-1.8,3.1-4.9,5-8.4,5
		c-6.7,0-11-5.1-11-11.6V0.4h6v17.8c0,4,2.1,6.8,6.2,6.8c4,0,6.8-3.8,7.2-7.8V0.4H54.6z"/>
	<path class="st2" d="M102.3,23.2v5.4c-1.7,1.3-4,1.7-5.9,1.7c-5.2,0-8.2-4.3-8.2-9v-9.6c0-4-2.1-6.9-5.9-6.9
		c-4.3,0-7.2,3.7-7.5,7.9v16.8h-6V0.4h6v4c1.7-3.1,4.9-4.8,8.7-4.8c6.4,0,10.7,5,10.7,11.6v9.5c0,2.3,1.6,4.1,4.2,4.1
		C99.6,24.8,101,24.3,102.3,23.2z"/>
	<path class="st2" d="M122.8,25.1c2.7,0,6-0.7,8.5-2.6v5.9c-2.6,1.4-6,1.9-8.4,1.9c-9.3,0-16.5-6.4-16.5-15.4
		c0-8.2,6.7-15.2,14.8-15.2c5.4,0,9.3,2.3,12.6,6.4l-17.3,17.3C118.3,24.5,120.5,25.1,122.8,25.1z M111.8,14.9c0,2,0.5,3.8,1.5,5.3
		l13.1-13.3c-1.4-1.2-3.5-2-5.3-2C115.6,4.9,111.8,9.5,111.8,14.9z"/>
	<path class="st2" d="M162.8,4.5c0,2.6-2.1,4.9-4.8,4.9c-1.8,0-3.4-1.2-4.2-2.9c-2.6,1.3-4.2,4-4.4,7.3v15.7h-6V0.4h6v4.9
		c1.6-3.1,4.8-5.6,8.4-5.6C160.6-0.3,162.8,1.8,162.8,4.5z"/>
	<path class="st2" d="M199.1,0.4v35.1c0,5.9-4.3,12.5-10.5,13.2l-2-5.1c3.7-0.6,6.6-4.4,6.6-8.1V24.7c-2.5,3.6-6.3,5.6-10.7,5.6
		c-8.4,0-14.5-7-14.5-15.3c0-8.3,6.1-15.3,14.5-15.3c4.3,0,8.2,1.9,10.7,5.6V0.4H199.1z M193,12.6c-0.6-4.1-4.6-7.8-9.4-7.8
		c-5.5,0-9.8,4.7-9.8,10.1c0,5.4,4.3,10.1,9.8,10.1c4.9,0,8.9-3.7,9.4-7.8V12.6z"/>
	<path class="st2" d="M238.5,0.4v35.1c0,5.9-4.2,12.5-10.4,13.2l-2-5.1c3.7-0.5,6.6-4.4,6.6-8.1V25.4c-1.8,3.1-4.9,5-8.4,5
		c-6.7,0-11-5.1-11-11.6V0.4h6v17.8c0,4,2.1,6.8,6.2,6.8c4,0,6.8-3.8,7.2-7.8V0.4H238.5z"/>
</g>
</svg>
